HIERARCHY
ROOT Hips
{
  OFFSET 5.72205e-005 65.662 3.42586
  CHANNELS 6 Xposition Yposition Zposition Zrotation Xrotation Yrotation
  JOINT Chest
  {
    OFFSET 0 8.7983 -4.7612
    CHANNELS 3 Zrotation Xrotation Yrotation
    JOINT Chest2
    {
      OFFSET 0 8.0291 0.4195
      CHANNELS 3 Zrotation Xrotation Yrotation
      JOINT Chest3
      {
        OFFSET 0 9.9351 -2.2114
        CHANNELS 3 Zrotation Xrotation Yrotation
        JOINT Neck
        {
          OFFSET 0 22.3885 -0.4656
          CHANNELS 3 Zrotation Xrotation Yrotation
          JOINT Head
          {
            OFFSET -0.0001 12.643 3.4389
            CHANNELS 3 Zrotation Xrotation Yrotation
            End Site
            {
              OFFSET 0.0001 17.6655 0.5274
            }
          }
        }
        JOINT LeftCollar
        {
          OFFSET 2.2603 21.606 7.4023
          CHANNELS 3 Zrotation Xrotation Yrotation
          JOINT LeftShoulder
          {
            OFFSET 13.5163 -1.1332 -5.0146
            CHANNELS 3 Zrotation Xrotation Yrotation
            JOINT LeftElbow
            {
              OFFSET -0.0995 -28.05 -0.2431
              CHANNELS 3 Zrotation Xrotation Yrotation
              JOINT LeftWrist
              {
                OFFSET 0.0679 -23.3996 -0.1402
                CHANNELS 3 Zrotation Xrotation Yrotation
                JOINT LeftFinger1
                {
                  OFFSET 0.7932 -9.069 2.5189
                  CHANNELS 3 Zrotation Xrotation Yrotation
                  JOINT LeftFinger11
                  {
                    OFFSET -0.8272 -3.3923 0.5977
                    CHANNELS 3 Zrotation Xrotation Yrotation
                    JOINT LeftFinger12
                    {
                      OFFSET -0.5649 -2.3158 0.4082
                      CHANNELS 3 Zrotation Xrotation Yrotation
                      End Site
                      {
                        OFFSET -0.4919 -1.6479 0.2673
                      }
                    }
                  }
                }
                JOINT LeftFinger2
                {
                  OFFSET 0.9159 -9.2044 0.2193
                  CHANNELS 3 Zrotation Xrotation Yrotation
                  JOINT LeftFinger21
                  {
                    OFFSET 0.0117 -4.1944 -0.0248
                    CHANNELS 3 Zrotation Xrotation Yrotation
                    JOINT LeftFinger22
                    {
                      OFFSET 0.0071 -2.3249 -0.0142
                      CHANNELS 3 Zrotation Xrotation Yrotation
                      End Site
                      {
                        OFFSET -0.1475 -2.0882 0.0028
                      }
                    }
                  }
                }
                JOINT LeftFinger3
                {
                  OFFSET 0.6113 -8.7231 -2.0637
                  CHANNELS 3 Zrotation Xrotation Yrotation
                  JOINT LeftFinger31
                  {
                    OFFSET -0.1927 -3.8059 -0.2383
                    CHANNELS 3 Zrotation Xrotation Yrotation
                    JOINT LeftFinger32
                    {
                      OFFSET -0.1091 -2.1688 -0.1362
                      CHANNELS 3 Zrotation Xrotation Yrotation
                      End Site
                      {
                        OFFSET -0.2358 -1.9176 -0.0906
                      }
                    }
                  }
                }
                JOINT LeftFinger4
                {
                  OFFSET -0.6151 -8.0947 -3.5641
                  CHANNELS 3 Zrotation Xrotation Yrotation
                  JOINT LeftFinger41
                  {
                    OFFSET -0.4882 -2.341 -0.6462
                    CHANNELS 3 Zrotation Xrotation Yrotation
                    JOINT LeftFinger42
                    {
                      OFFSET -0.3575 -1.7167 -0.4742
                      CHANNELS 3 Zrotation Xrotation Yrotation
                      End Site
                      {
                        OFFSET -0.4187 -1.5237 -0.3496
                      }
                    }
                  }
                }
                JOINT LeftFinger0
                {
                  OFFSET -1.42 -1.8761 1.4223
                  CHANNELS 3 Zrotation Xrotation Yrotation
                  JOINT LeftFinger01
                  {
                    OFFSET -1.1471 -3.4929 2.6334
                    CHANNELS 3 Zrotation Xrotation Yrotation
                    JOINT LeftFinger02
                    {
                      OFFSET -0.823 -2.3 1.6571
                      CHANNELS 3 Zrotation Xrotation Yrotation
                      End Site
                      {
                        OFFSET -0.5822 -1.6914 1.1582
                      }
                    }
                  }
                }
              }
            }
          }
        }
        JOINT RightCollar
        {
          OFFSET -2.2603 21.606 7.4023
          CHANNELS 3 Zrotation Xrotation Yrotation
          JOINT RightShoulder
          {
            OFFSET -13.5187 -1.1334 -5.0155
            CHANNELS 3 Zrotation Xrotation Yrotation
            JOINT RightElbow
            {
              OFFSET 0.0994 -28.0499 -0.2431
              CHANNELS 3 Zrotation Xrotation Yrotation
              JOINT RightWrist
              {
                OFFSET -0.0679 -23.3996 -0.1402
                CHANNELS 3 Zrotation Xrotation Yrotation
                JOINT RightFinger1
                {
                  OFFSET -0.7932 -9.0691 2.5189
                  CHANNELS 3 Zrotation Xrotation Yrotation
                  JOINT RightFinger11
                  {
                    OFFSET 0.8272 -3.3923 0.5977
                    CHANNELS 3 Zrotation Xrotation Yrotation
                    JOINT RightFinger12
                    {
                      OFFSET 0.565 -2.3158 0.4082
                      CHANNELS 3 Zrotation Xrotation Yrotation
                      End Site
                      {
                        OFFSET 0.4919 -1.6479 0.2673
                      }
                    }
                  }
                }
                JOINT RightFinger2
                {
                  OFFSET -0.916 -9.2044 0.2193
                  CHANNELS 3 Zrotation Xrotation Yrotation
                  JOINT RightFinger21
                  {
                    OFFSET -0.0117 -4.1944 -0.0248
                    CHANNELS 3 Zrotation Xrotation Yrotation
                    JOINT RightFinger22
                    {
                      OFFSET -0.0071 -2.3249 -0.0142
                      CHANNELS 3 Zrotation Xrotation Yrotation
                      End Site
                      {
                        OFFSET 0.1475 -2.0882 0.0028
                      }
                    }
                  }
                }
                JOINT RightFinger3
                {
                  OFFSET -0.6113 -8.7231 -2.0637
                  CHANNELS 3 Zrotation Xrotation Yrotation
                  JOINT RightFinger31
                  {
                    OFFSET 0.1927 -3.8059 -0.2383
                    CHANNELS 3 Zrotation Xrotation Yrotation
                    JOINT RightFinger32
                    {
                      OFFSET 0.1091 -2.1688 -0.1362
                      CHANNELS 3 Zrotation Xrotation Yrotation
                      End Site
                      {
                        OFFSET 0.2358 -1.9176 -0.0906
                      }
                    }
                  }
                }
                JOINT RightFinger4
                {
                  OFFSET 0.6151 -8.0947 -3.564
                  CHANNELS 3 Zrotation Xrotation Yrotation
                  JOINT RightFinger41
                  {
                    OFFSET 0.4882 -2.341 -0.6462
                    CHANNELS 3 Zrotation Xrotation Yrotation
                    JOINT RightFinger42
                    {
                      OFFSET 0.3574 -1.7166 -0.4742
                      CHANNELS 3 Zrotation Xrotation Yrotation
                      End Site
                      {
                        OFFSET 0.4187 -1.5237 -0.3496
                      }
                    }
                  }
                }
                JOINT RightFinger0
                {
                  OFFSET 1.4199 -1.8761 1.4221
                  CHANNELS 3 Zrotation Xrotation Yrotation
                  JOINT RightFinger01
                  {
                    OFFSET 1.1472 -3.4929 2.6336
                    CHANNELS 3 Zrotation Xrotation Yrotation
                    JOINT RightFinger02
                    {
                      OFFSET 0.8229 -2.3 1.6571
                      CHANNELS 3 Zrotation Xrotation Yrotation
                      End Site
                      {
                        OFFSET 0.5822 -1.6914 1.1582
                      }
                    }
                  }
                }
              }
            }
          }
        }
      }
    }
  }
  JOINT RightHip
  {
    OFFSET -9.412 3.9771 -0.7758
    CHANNELS 3 Zrotation Xrotation Yrotation
    JOINT RightKnee
    {
      OFFSET -0.7531 -40.938 0
      CHANNELS 3 Zrotation Xrotation Yrotation
      JOINT RightAnkle
      {
        OFFSET 0 -40.1986 0
        CHANNELS 3 Zrotation Xrotation Yrotation
        JOINT RightToe
        {
          OFFSET 0 -4.4182 9.239
          CHANNELS 3 Zrotation Xrotation Yrotation
          End Site
          {
            OFFSET 0 0 6.1981
          }
        }
      }
    }
  }
  JOINT LeftHip
  {
    OFFSET 9.4119 3.9773 -0.7758
    CHANNELS 3 Zrotation Xrotation Yrotation
    JOINT LeftKnee
    {
      OFFSET 0.7532 -40.9383 0
      CHANNELS 3 Zrotation Xrotation Yrotation
      JOINT LeftAnkle
      {
        OFFSET 0 -40.1986 0
        CHANNELS 3 Zrotation Xrotation Yrotation
        JOINT LeftToe
        {
          OFFSET 0 -4.4182 9.239
          CHANNELS 3 Zrotation Xrotation Yrotation
          End Site
          {
            OFFSET 0 0 6.1981
          }
        }
      }
    }
  }
}
MOTION
Frames:	5
Frame Time:	0.0333333
39.8813 17.4709 6.46715 180 -85.9956 180 -1.84887 0.764452 -0.0677073 -3.69733 1.5307 -0.110727 -3.69734 1.53071 -0.110726 -18.7895 -3.01306 0.00429365 -1.21526 -7.93746 1.04307 -0.108801 1.96316 -12.6503 116.58 44.1606 -55.5758 -4.06273 -29.7273 -42.5957 1.45333 3.30594 6.2579 1.18174e-007 -8.89486e-007 8.28058e-007 -1.18174e-007 8.89486e-007 -8.28058e-007 -1.18174e-007 -8.24655e-007 -8.28058e-007 1.18174e-007 -8.89486e-007 8.28058e-007 -0.0128331 0.00232994 8.53839e-005 -7.09339e-007 -1.54974e-006 9.05834e-007 1.18174e-007 -8.89486e-007 8.28058e-007 -0.0160498 0.00299905 0.000857888 -8.27507e-007 1.48072e-007 7.77588e-008 1.18174e-007 -8.89486e-007 8.28058e-007 -0.0125372 0.00311241 0.002819 -1.18166e-007 -8.24655e-007 -8.28057e-007 1.18174e-007 -8.89486e-007 8.28058e-007 -1.18174e-007 8.89486e-007 -8.28058e-007 -1.18174e-007 -8.24655e-007 -8.28058e-007 -5.64666 2.79449 -7.3483 -93.0131 11.9293 43.4698 -1.91599 -3.87538 40.8077 -2.16086 -20.8861 -3.9932 -1.25383e-005 -3.65917e-006 1.35178e-006 -4.96962e-016 1.59028e-015 -0 -1.11677e-007 8.41079e-007 -1.6743e-006 -1.25383e-005 -3.65917e-006 1.35178e-006 0.0129513 0.00231853 -8.68073e-005 1.25927e-005 1.50922e-006 -5.14113e-007 -1.25383e-005 -3.65917e-006 1.35178e-006 0.0163738 0.00304338 -0.000876288 -1.18142e-005 -2.66088e-006 -3.44651e-007 -1.25383e-005 -3.65917e-006 1.35178e-006 0.0145959 0.00368102 -0.00326415 5.86468e-006 2.29322e-006 -1.17981e-006 -1.25383e-005 -3.65917e-006 1.35178e-006 -4.96962e-016 1.59028e-015 -0 -1.11677e-007 8.41079e-007 -1.6743e-006 -60.7862 -15.6317 -32.0952 -133.833 72.1821 141.381 -3.01019 -1.74292 -2.3386 1.79803e-006 7.08651e-006 -2.9366e-006 60.3792 -15.9305 30.5509 130.761 73.2052 -138.471 1.34612 -0.440701 2.52427 1.19949e-006 -1.45387e-006 2.08977e-006 
39.8814 17.5287 6.46494 180 -85.9956 180 -1.8488 0.784658 -0.0658842 -3.69721 1.57105 -0.106428 -3.69723 1.57104 -0.106429 -18.7981 -3.4638 -0.149383 -1.21416 -7.53687 1.0517 0.24731 2.00817 -12.2452 116.229 43.8121 -55.3163 -4.13021 -30.3534 -42.6432 1.07357 3.58278 6.38162 1.18203e-007 8.30081e-007 8.28068e-007 -1.59028e-015 8.73133e-007 3.18055e-015 7.95139e-016 3.18055e-015 1.59028e-015 1.18203e-007 8.30081e-007 8.28068e-007 -0.012834 0.00232763 8.49401e-005 -1.18208e-007 1.70864e-006 -8.28073e-007 1.18203e-007 8.30081e-007 8.28068e-007 -0.0160175 0.00299072 0.000855403 8.27504e-007 7.19703e-007 -7.78035e-008 1.18203e-007 8.30081e-007 8.28068e-007 -0.0126332 0.00313293 0.00283774 8.27516e-007 7.03351e-007 -7.77947e-008 1.18203e-007 8.30081e-007 8.28068e-007 -1.59028e-015 8.73133e-007 3.18055e-015 7.95139e-016 3.18055e-015 1.59028e-015 -5.64655 2.79446 -7.3483 -93.0131 11.9293 43.4698 -1.91598 -3.87542 40.8076 -2.09693 -20.951 -4.09409 -2.08724e-015 -2.38542e-015 -0 6.95746e-016 -2.38542e-015 -3.18055e-015 3.97569e-016 -1.59028e-015 1.59028e-015 -2.08724e-015 -2.38542e-015 -0 0.0129206 0.00231124 -8.48197e-005 -1.13216e-007 -8.86986e-007 -1.67409e-006 -2.08724e-015 -2.38542e-015 -0 0.0163243 0.00303351 -0.000873488 1.98785e-015 1.59028e-015 1.59028e-015 -2.08724e-015 -2.38542e-015 -0 0.0145713 0.0036762 -0.00326146 1.18856e-005 2.91304e-006 1.477e-007 -2.08724e-015 -2.38542e-015 -0 6.95746e-016 -2.38542e-015 -3.18055e-015 3.97569e-016 -1.59028e-015 1.59028e-015 -61.0023 -15.4783 -32.3367 -133.831 72.1828 141.378 -3.23211 -1.74419 -2.14686 -6.40136e-006 8.73683e-006 9.80109e-006 60.5015 -15.8114 30.6846 130.759 73.2058 -138.468 1.47425 -0.451513 2.40435 1.59563e-006 -3.63966e-006 -3.06337e-007 
39.8814 17.5865 6.46274 -180 -85.9956 -180 -1.84867 0.804835 -0.0640574 -3.697 1.61131 -0.102128 -3.697 1.61131 -0.102126 -18.8081 -3.91439 -0.303177 -1.21314 -7.13635 1.0603 0.602816 2.05581 -11.8403 115.883 43.4625 -55.0613 -4.19874 -30.9795 -42.6918 0.693139 3.85877 6.50715 -1.98785e-015 3.18055e-015 -0 -1.19271e-015 3.18055e-015 -3.18055e-015 -3.18055e-015 1.59028e-015 -3.18055e-015 -1.98785e-015 3.18055e-015 -0 -0.0128314 0.00232812 8.67131e-005 1.98785e-016 0 -4.77083e-015 -1.98785e-015 3.18055e-015 -0 -0.0160483 0.00299385 0.00085783 -3.37934e-015 1.59028e-015 -1.59028e-015 -1.98785e-015 3.18055e-015 -0 -0.0126295 0.00313398 0.00283521 -5.68868e-006 1.87847e-006 1.50814e-006 -1.98785e-015 3.18055e-015 -0 -1.19271e-015 3.18055e-015 -3.18055e-015 -3.18055e-015 1.59028e-015 -3.18055e-015 -5.6467 2.79451 -7.3483 -93.013 11.9293 43.4698 -1.91599 -3.87538 40.8077 -2.0331 -21.016 -4.19497 -5.06901e-015 0 1.59028e-015 -5.06901e-015 0 1.59028e-015 -3.27995e-015 -7.95139e-016 1.59028e-015 -5.06901e-015 0 1.59028e-015 0.0129498 0.00231771 -8.79372e-005 2.48481e-015 -7.95139e-016 -0 -5.06901e-015 0 1.59028e-015 0.016328 0.00303425 -0.00087437 -1.09332e-015 7.95139e-016 -0 -5.06901e-015 0 1.59028e-015 0.0145666 0.00367593 -0.00326384 5.73597e-008 -4.20076e-007 8.3693e-007 -5.06901e-015 0 1.59028e-015 -5.06901e-015 0 1.59028e-015 -3.27995e-015 -7.95139e-016 1.59028e-015 -61.2176 -15.3239 -32.5773 -133.828 72.1834 141.376 -3.45409 -1.74628 -1.95512 -3.18055e-015 1.99015e-006 -0 60.6235 -15.6921 30.818 130.756 73.2064 -138.464 1.60233 -0.462632 2.28446 1.19642e-006 -3.59815e-006 2.09128e-006 
39.8815 17.6444 6.46053 -180 -85.9956 -180 -1.8486 0.82501 -0.0622331 -3.69687 1.65159 -0.0978267 -3.69688 1.65158 -0.0978258 -18.8191 -4.36499 -0.457137 -1.21215 -6.73585 1.06888 0.958172 2.10583 -11.4358 115.542 43.1117 -54.8106 -4.26839 -31.6054 -42.7416 0.312005 4.13389 6.63458 -1.18309e-007 1.73281e-006 -8.28108e-007 1.18309e-007 -1.73281e-006 8.28108e-007 -1.18309e-007 1.73281e-006 -8.28108e-007 -1.18309e-007 1.73281e-006 -8.28108e-007 -0.0127878 0.00231738 8.7224e-005 7.09178e-007 1.53355e-006 -9.06084e-007 -1.18309e-007 1.73281e-006 -8.28108e-007 -0.0160441 0.00299481 0.000857937 -1.2921e-014 6.36111e-015 3.18055e-015 -1.18309e-007 1.73281e-006 -8.28108e-007 -0.0125661 0.00311759 0.00282547 -4.41671e-006 8.4719e-007 -8.59444e-007 -1.18309e-007 1.73281e-006 -8.28108e-007 1.18309e-007 -1.73281e-006 8.28108e-007 -1.18309e-007 1.73281e-006 -8.28108e-007 -5.64661 2.79448 -7.3483 -93.0131 11.9293 43.4698 -1.91599 -3.87538 40.8077 -1.96941 -21.0812 -4.29583 -2.08724e-015 -7.95139e-016 3.18055e-015 -2.18663e-015 -1.59028e-015 -0 7.95139e-016 -7.95139e-016 -1.59028e-015 -2.08724e-015 -7.95139e-016 3.18055e-015 0.0129562 0.00231722 -8.68177e-005 -2.5844e-005 -4.71475e-006 1.73488e-006 -2.08724e-015 -7.95139e-016 3.18055e-015 0.0163163 0.00303023 -0.000873056 2.18663e-015 -1.59028e-015 -4.77083e-015 -2.08724e-015 -7.95139e-016 3.18055e-015 0.0145682 0.00367472 -0.0032605 -2.98177e-016 0 -0 -2.08724e-015 -7.95139e-016 3.18055e-015 -2.18663e-015 -1.59028e-015 -0 7.95139e-016 -7.95139e-016 -1.59028e-015 -61.4321 -15.1685 -32.8172 -133.826 72.1841 141.373 -3.67598 -1.74908 -1.76344 -1.96935e-007 5.46538e-006 -2.31359e-007 60.745 -15.5724 30.9511 130.754 73.2069 -138.461 1.73043 -0.474125 2.16463 -1.70103e-006 -9.59316e-006 1.17626e-005 
39.8816 17.7023 6.45833 180 -85.9956 180 -1.84851 0.84517 -0.0604037 -3.69673 1.69184 -0.0935238 -3.69673 1.69183 -0.0935244 -18.8314 -4.8155 -0.611266 -1.21124 -6.3354 1.07746 1.31306 2.1584 -11.0317 115.204 42.76 -54.5642 -4.33907 -32.2311 -42.7927 -0.0698185 4.40811 6.76387 -7.95139e-016 1.59028e-015 -1.59028e-015 -5.96354e-016 0 -0 -7.95139e-016 0 -0 -7.95139e-016 1.59028e-015 -1.59028e-015 -0.01282 0.00232543 8.5401e-005 -9.93923e-016 1.59028e-015 -3.18055e-015 -7.95139e-016 1.59028e-015 -1.59028e-015 -0.0160071 0.00298617 0.000854847 2.5842e-015 1.59028e-015 -4.77083e-015 -7.95139e-016 1.59028e-015 -1.59028e-015 -0.0126444 0.00313446 0.00284045 5.96354e-016 0 1.59028e-015 -7.95139e-016 1.59028e-015 -1.59028e-015 -5.96354e-016 0 -0 -7.95139e-016 0 -0 -5.64657 2.79446 -7.3483 -93.013 11.9293 43.4698 -1.91598 -3.87535 40.8077 -1.90577 -21.1464 -4.39663 1.49089e-015 8.75357e-007 -1.59028e-015 -1.17808e-007 -4.4234e-007 -1.67343e-006 2.88238e-015 0 -0 1.49089e-015 8.75357e-007 -1.59028e-015 0.012933 0.00231136 -8.66241e-005 7.09194e-007 1.2277e-006 -6.72727e-007 1.49089e-015 8.75357e-007 -1.59028e-015 0.0163223 0.0030316 -0.000872571 -5.89052e-008 4.21231e-007 -8.36717e-007 1.49089e-015 8.75357e-007 -1.59028e-015 0.0145945 0.0036817 -0.00326493 3.37934e-015 -7.95139e-016 -3.18055e-015 1.49089e-015 8.75357e-007 -1.59028e-015 -1.17808e-007 -4.4234e-007 -1.67343e-006 2.88238e-015 0 -0 -61.6455 -15.0124 -33.0563 -133.824 72.1846 141.371 -3.89789 -1.75275 -1.57179 1.59028e-015 -3.18055e-015 -6.36111e-015 60.8663 -15.4524 31.0838 130.752 73.2076 -138.458 1.85853 -0.485863 2.04483 -2.97634e-006 -4.35007e-006 -2.026e-006 
